#!OML:ASF H:\ManfredETheater\Project 1\Capture day 1\Session 1\subject.ASF
:FULLY-SPECIFIED
:DEGREES
229
root 0.805128 17.7203 -16.2783 -170.44 -2.96948 179.268
lowerback 2.08898 -0.601242 -0.760012
upperback -3.99955 -0.894768 2.23369
thorax -5.26333 -0.430114 2.80857
lowerneck -17.0254 -1.83599 -2.55325
upperneck 15.3782 -1.98994 0.176739
head 7.56452 -1.12185 0.243624
rclavicle -4.72114e-015 2.38542e-015
rhumerus -35.3429 -7.84251 -80.5333
rradius 34.3652
rwrist 1.45766
rhand -20.8416 -9.56909
rfingers 7.12502
rthumb 5.52733 -39.477
lclavicle -4.72114e-015 2.38542e-015
lhumerus -39.4091 7.78217 86.8156
lradius 34.6529
lwrist -10.0957
lhand -9.84829 8.03863
lfingers 7.12502
lthumb 16.1297 37.3874
rfemur -15.7179 0.242514 23.1645
rtibia 33.097
rfoot -21.882 -11.1262
rtoes -11.5216
lfemur -20.5256 -6.80698 -20.6514
ltibia 40.1213
lfoot -25.7104 -0.0314044
ltoes 13.82
230
root 0.796766 17.7152 -16.2901 -170.375 -2.90945 179.263
lowerback 2.14791 -0.57422 -0.759731
upperback -3.97356 -0.856349 2.2249
thorax -5.27191 -0.410168 2.79733
lowerneck -17.019 -1.83942 -2.56331
upperneck 15.2906 -1.99025 0.183404
head 7.5347 -1.12017 0.248031
rclavicle -2.01021e-014 3.18055e-014
rhumerus -35.3396 -7.72033 -80.6756
rradius 34.4187
rwrist 1.35822
rhand -20.8233 -9.52985
rfingers 7.12502
rthumb 5.54497 -39.4373
lclavicle -2.01021e-014 3.18055e-014
lhumerus -39.4548 7.80601 86.792
lradius 34.6968
lwrist -9.97348
lhand -9.8735 8.08354
lfingers 7.12502
lthumb 16.1055 37.4343
rfemur -15.7825 0.201768 23.1204
rtibia 33.1687
rfoot -21.9872 -11.1492
rtoes -11.8922
lfemur -20.5703 -6.81148 -20.6927
ltibia 40.1781
lfoot -25.8216 0.049177
ltoes 13.8735
231
root 0.788385 17.7098 -16.3028 -170.311 -2.85078 179.257
lowerback 2.21347 -0.547406 -0.759237
upperback -3.9524 -0.818369 2.21632
thorax -5.28933 -0.390419 2.78641
lowerneck -16.9941 -1.84389 -2.57713
upperneck 15.1969 -1.99205 0.190832
head 7.49978 -1.11946 0.253298
rclavicle 4.37326e-015 3.18055e-015
rhumerus -35.3555 -7.58523 -80.8223
rradius 34.4877
rwrist 1.25139
rhand -20.7946 -9.49776
rfingers 7.12502
rthumb 5.57267 -39.4045
lclavicle 4.37326e-015 3.18055e-015
lhumerus -39.5092 7.81883 86.7746
lradius 34.7428
lwrist -9.86217
lhand -9.91056 8.10908
lfingers 7.12502
lthumb 16.0698 37.4627
rfemur -15.843 0.170427 23.0763
rtibia 33.2431
rfoot -22.0987 -11.2086
rtoes -12.3136
lfemur -20.6128 -6.81424 -20.7352
ltibia 40.2396
lfoot -25.9353 0.129757
ltoes 13.9218
232
root 0.779855 17.704 -16.3163 -170.248 -2.7931 179.247
lowerback 2.28527 -0.522335 -0.760983
upperback -3.93101 -0.782727 2.20644
thorax -5.30993 -0.371672 2.77559
lowerneck -16.974 -1.84512 -2.58724
upperneck 15.1061 -1.99024 0.198289
head 7.46657 -1.11683 0.258321
rclavicle 2.33572e-015 -1.59028e-015
rhumerus -35.3711 -7.44102 -80.9773
rradius 34.5633
rwrist 1.13911
rhand -20.7559 -9.47366
rfingers 7.12502
rthumb 5.61002 -39.3794
lclavicle 2.33572e-015 -1.59028e-015
lhumerus -39.5629 7.82269 86.7615
lradius 34.793
lwrist -9.76436
lhand -9.95499 8.12691
lfingers 7.12502
lthumb 16.027 37.484
rfemur -15.898 0.141621 23.0282
rtibia 33.32
rfoot -22.213 -11.315
rtoes -12.8399
lfemur -20.6519 -6.81796 -20.7835
ltibia 40.3053
lfoot -26.0521 0.212757
ltoes 13.9565
233
root 0.771185 17.698 -16.3311 -170.186 -2.73488 179.235
lowerback 2.35676 -0.497562 -0.761614
upperback -3.90908 -0.747454 2.19545
thorax -5.32978 -0.353177 2.76294
lowerneck -16.9548 -1.84616 -2.59548
upperneck 15.0148 -1.98827 0.203724
head 7.43334 -1.11421 0.262381
rclavicle -7.35503e-015 -4.77083e-015
rhumerus -35.3908 -7.28401 -81.1409
rradius 34.6515
rwrist 1.01403
rhand -20.7092 -9.46584
rfingers 7.12502
rthumb 5.65512 -39.3704
lclavicle -7.35503e-015 -4.77083e-015
lhumerus -39.6113 7.81871 86.7527
lradius 34.8399
lwrist -9.68644
lhand -10.0076 8.13404
lfingers 7.12502
lthumb 15.9764 37.4952
rfemur -15.9487 0.114381 22.9791
rtibia 33.3993
rfoot -22.3319 -11.475
rtoes -13.4963
lfemur -20.689 -6.82081 -20.8346
ltibia 40.3752
lfoot -26.1724 0.297238
ltoes 13.9846
234
root 0.762187 17.6916 -16.3473 -170.123 -2.6803 179.22
lowerback 2.42863 -0.473999 -0.759637
upperback -3.89033 -0.713889 2.1824
thorax -5.35314 -0.335692 2.74679
lowerneck -16.9218 -1.84851 -2.60567
upperneck 14.9184 -1.98903 0.213659
head 7.39621 -1.11262 0.268052
rclavicle 2.13694e-015 0
rhumerus -35.4232 -7.11691 -81.3119
rradius 34.7554
rwrist 0.878343
rhand -20.6588 -9.46759
rfingers 7.12502
rthumb 5.7038 -39.3708
lclavicle 2.13694e-015 0
lhumerus -39.6653 7.80773 86.7465
lradius 34.8878
lwrist -9.63124
lhand -10.0558 8.13604
lfingers 7.12502
lthumb 15.9299 37.5009
rfemur -15.9938 0.0758827 22.9271
rtibia 33.4808
rfoot -22.4624 -11.6869
rtoes -14.311
lfemur -20.7227 -6.82391 -20.8907
ltibia 40.4484
lfoot -26.2976 0.383302
ltoes 13.9959
235
root 0.752813 17.6848 -16.3651 -170.058 -2.62762 179.207
lowerback 2.49549 -0.451461 -0.750281
upperback -3.87236 -0.681518 2.16917
thorax -5.37443 -0.319204 2.72625
lowerneck -16.8872 -1.852 -2.61991
upperneck 14.8205 -1.9911 0.227444
head 7.35844 -1.11154 0.275509
rclavicle -5.01931e-015 3.26007e-014
rhumerus -35.4604 -6.93477 -81.4919
rradius 34.8726
rwrist 0.730618
rhand -20.6121 -9.48288
rfingers 7.12502
rthumb 5.74882 -39.3849
lclavicle -5.01931e-015 3.26007e-014
lhumerus -39.7145 7.79438 86.7425
lradius 34.9293
lwrist -9.59688
lhand -10.1022 8.12819
lfingers 7.12502
lthumb 15.8853 37.4966
rfemur -16.0353 0.0287662 22.8771
rtibia 33.5638
rfoot -22.611 -11.9544
rtoes -15.3289
lfemur -20.7547 -6.82899 -20.9466
ltibia 40.5246
lfoot -26.4295 0.473971
ltoes 13.991
236
root 0.742988 17.6777 -16.3846 -169.99 -2.57616 179.195
lowerback 2.55469 -0.428857 -0.733029
upperback -3.85524 -0.648898 2.15515
thorax -5.39228 -0.303058 2.70026
lowerneck -16.8549 -1.85697 -2.63455
upperneck 14.728 -1.99528 0.241668
head 7.32288 -1.11154 0.282878
rclavicle -5.51627e-015 -5.56597e-015
rhumerus -35.5058 -6.73857 -81.68
rradius 35.0056
rwrist 0.574824
rhand -20.5746 -9.50429
rfingers 7.12502
rthumb 5.7851 -39.4053
lclavicle -5.51627e-015 -5.56597e-015
lhumerus -39.7613 7.77675 86.7415
lradius 34.9667
lwrist -9.578
lhand -10.1422 8.10805
lfingers 7.12502
lthumb 15.8467 37.4796
rfemur -16.0726 -0.0312305 22.8279
rtibia 33.648
rfoot -22.7846 -12.2726
rtoes -16.5736
lfemur -20.784 -6.83687 -21.0036
ltibia 40.603
lfoot -26.5683 0.571237
ltoes 13.9724
